# xmcd
#
# Track frame offsets:
#	150
#	17446
#	34229
#	51198
#	66163
#	82339
#	101146
#	117843
#	133758
#	157277
#
# Disc length: 2270 seconds
#
# Revision: 2
# Processed by: cddbd v1.5.2PL0 Copyright (c) Steve Scherf et al.
# Submitted via: audiograbber 1.83.01
#
DISCID=8e08dc0a
DTITLE=Edens Edge - Edens Edge
DYEAR=2012
DGENRE=Country
TTITLE0=Amen
TTITLE1=Swingin' Door
TTITLE2=Skinny Dippin'
TTITLE3=Too Good To Be True
TTITLE4=Last Supper
TTITLE5=Feels So Real
TTITLE6=Who Am I Drinking Tonight
TTITLE7=Liar
TTITLE8=Cherry Pie
TTITLE9=Christ Alone
EXTD=
EXTT0=
EXTT1=
EXTT2=
EXTT3=
EXTT4=
EXTT5=
EXTT6=
EXTT7=
EXTT8=
EXTT9=
PLAYORDER=
